# xmcd
#
# Track frame offsets:
# 150
# 13011
# 26883
# 38893
# 53590
# 63927
# 75836
# 90059
# 103717
# 121121
# 134504
# 144555
# 157389
# 169916
# 187246
# 201682
# 217581
# 231909
# 249989
# 261617
# 275097
# 289332
# 303129
# 314551
# 326779
#
# Disc length: 4566 seconds
#
#
# Revision: 0
# Processed by: cddbd v1.5.1PL2 Copyright (c) Steve Scherf et al.
# Submitted via: FreeRIP 2.35 
#
DISCID=7611d419
DTITLE=Barbara Ray -  - The Heart and Soul [CD2)
DYEAR=1999
DGENRE=Country
TTITLE0=Barbara Ray - As Usual
TTITLE1=Barbara Ray - Teddy Bear Song
TTITLE2=Barbara Ray - To Daddy
TTITLE3=Barbara Ray - The last one to Touch Me
TTITLE4=Barbara Ray - Ragged Angel
TTITLE5=Barbara Ray - Somebody Loves You
TTITLE6=Barbara Ray - The Rainbow in Daddy's Eyes
TTITLE7=Barbara Ray - Let the Big Wheels Roll
TTITLE8=Barbara Ray - Bedtime Story
TTITLE9=Barbara Ray - In the Middle of the Night
TTITLE10=Barbara Ray - After the Fire is Gone
TTITLE11=Barbara Ray - Womanhood
TTITLE12=Barbara Ray - The Greatest Christmas Gift
TTITLE13=Barbara Ray - Mississippi
TTITLE14=Barbara Ray - Payin' My Dues Again
TTITLE15=Barbara Ray - Me and Bobby McGee
TTITLE16=Barbara Ray - I'm not Lisa
TTITLE17=Barbara Ray - Ballad of Lucy Jordan
TTITLE18=Barbara Ray - Wolverton Mountain
TTITLE19=Barbara Ray - Made for Each Other
TTITLE20=Barbara Ray - Sayonara
TTITLE21=Barbara Ray - Down the Mississippi
TTITLE22=Barbara Ray - I Never Knew the Devil's Eyes Were Blue
TTITLE23=Barbara Ray - What's Wrong With the Way We're Doing it Now
TTITLE24=Barbara Ray - Voices
EXTD=
EXTT0=
EXTT1=
EXTT2=
EXTT3=
EXTT4=
EXTT5=
EXTT6=
EXTT7=
EXTT8=
EXTT9=
EXTT10=
EXTT11=
EXTT12=
EXTT13=
EXTT14=
EXTT15=
EXTT16=
EXTT17=
EXTT18=
EXTT19=
EXTT20=
EXTT21=
EXTT22=
EXTT23=
EXTT24=
PLAYORDER=
